<mxfile host="Electron" modified="2024-06-14T23:05:58.434Z" agent="Mozilla/5.0 (Macintosh; Intel Mac OS X 10_15_7) AppleWebKit/537.36 (KHTML, like Gecko) draw.io/23.1.5 Chrome/120.0.6099.109 Electron/28.1.0 Safari/537.36" etag="YUSudVufbFt7I-DPQxkn" version="23.1.5" type="device">
  <diagram name="Page-1" id="EMT705Tx_JR4VmNtWtbU">
    <mxGraphModel dx="2426" dy="1364" grid="1" gridSize="10" guides="1" tooltips="1" connect="1" arrows="1" fold="1" page="1" pageScale="1" pageWidth="1060" pageHeight="500" math="0" shadow="0">
      <root>
        <mxCell id="0" />
        <mxCell id="1" parent="0" />
        <mxCell id="GHTYQ7Oxa9TjjQKPl4bO-6" value="" style="rounded=1;whiteSpace=wrap;html=1;fillColor=#dae8fc;strokeWidth=4;strokeColor=none;movable=1;resizable=1;rotatable=1;deletable=1;editable=1;locked=0;connectable=1;" parent="1" vertex="1">
          <mxGeometry x="20" y="130" width="980" height="592" as="geometry" />
        </mxCell>
        <mxCell id="uHRUemTuvMoK1wuL37Rp-5" value="&lt;span&gt;Auto Parallelization&lt;/span&gt;&amp;nbsp;of Model Across Many Devices" style="rounded=1;whiteSpace=wrap;html=1;fontSize=24;fillColor=#3399FF;strokeColor=none;verticalAlign=middle;fontColor=#FFFFFF;fontStyle=1" parent="1" vertex="1">
          <mxGeometry x="70" y="330" width="700" height="60" as="geometry" />
        </mxCell>
        <mxCell id="uHRUemTuvMoK1wuL37Rp-6" value="Auto Resharding of&amp;nbsp;&lt;span&gt;Distributed Model Checkpoints&lt;/span&gt;" style="rounded=1;whiteSpace=wrap;html=1;fontSize=24;fillColor=#3399FF;strokeColor=none;verticalAlign=middle;fontColor=#FFFFFF;fontStyle=1" parent="1" vertex="1">
          <mxGeometry x="70" y="633" width="700" height="60" as="geometry" />
        </mxCell>
        <mxCell id="uHRUemTuvMoK1wuL37Rp-11" value="" style="rounded=0;orthogonalLoop=1;jettySize=auto;html=1;fillColor=#f5f5f5;strokeColor=#999999;endArrow=block;endFill=1;strokeWidth=7;endSize=6;exitX=0.5;exitY=1;exitDx=0;exitDy=0;" parent="1" source="4UxN9WbuX106H-aje4Cc-18" edge="1">
          <mxGeometry relative="1" as="geometry">
            <mxPoint x="430" y="840.5" as="sourcePoint" />
            <mxPoint x="417" y="150" as="targetPoint" />
          </mxGeometry>
        </mxCell>
        <mxCell id="uHRUemTuvMoK1wuL37Rp-12" value="" style="shape=curlyBracket;whiteSpace=wrap;html=1;rounded=1;flipH=1;labelPosition=right;verticalLabelPosition=middle;align=left;verticalAlign=middle;fillColor=#CCCCCC;fontColor=#333333;strokeColor=#999999;strokeWidth=5;" parent="1" vertex="1">
          <mxGeometry x="785" y="180" width="40" height="430" as="geometry" />
        </mxCell>
        <mxCell id="uHRUemTuvMoK1wuL37Rp-16" value="&lt;b style=&quot;font-size: 24px;&quot;&gt;Eager &lt;br style=&quot;font-size: 24px;&quot;&gt;Mode&lt;/b&gt;" style="shape=hexagon;perimeter=hexagonPerimeter2;whiteSpace=wrap;html=1;fixedSize=1;direction=south;fontSize=24;fillColor=#FF8000;strokeColor=none;fontColor=#FFFFFF;" parent="1" vertex="1">
          <mxGeometry x="835" y="180" width="120" height="190" as="geometry" />
        </mxCell>
        <mxCell id="GHTYQ7Oxa9TjjQKPl4bO-3" value="&lt;b style=&quot;font-size: 24px;&quot;&gt;Compile&lt;/b&gt;&lt;br style=&quot;font-size: 24px;&quot;&gt;&lt;b style=&quot;font-size: 24px;&quot;&gt;Mode&lt;/b&gt;" style="shape=hexagon;perimeter=hexagonPerimeter2;whiteSpace=wrap;html=1;fixedSize=1;direction=south;fontSize=24;fillColor=#FF8000;strokeColor=none;fontColor=#FFFFFF;" parent="1" vertex="1">
          <mxGeometry x="835" y="420" width="120" height="190" as="geometry" />
        </mxCell>
        <mxCell id="GHTYQ7Oxa9TjjQKPl4bO-5" value="&lt;b style=&quot;font-size: 40px;&quot;&gt;veScale&lt;/b&gt;" style="text;html=1;align=center;verticalAlign=middle;whiteSpace=wrap;rounded=0;fontSize=40;fontColor=#333333;" parent="1" vertex="1">
          <mxGeometry x="790" y="633" width="180" height="60" as="geometry" />
        </mxCell>
        <mxCell id="4UxN9WbuX106H-aje4Cc-11" value="&lt;b style=&quot;border-color: var(--border-color); font-size: 24px;&quot;&gt;Plan &lt;/b&gt;&lt;span style=&quot;border-color: var(--border-color); font-size: 24px;&quot;&gt;for&lt;/span&gt;&lt;b style=&quot;border-color: var(--border-color); font-size: 24px;&quot;&gt; n-Dim Parallelism&lt;/b&gt;" style="ellipse;whiteSpace=wrap;html=1;fillColor=#004C99;fontColor=#ffffff;strokeColor=none;" parent="1" vertex="1">
          <mxGeometry x="170" y="254" width="500" height="60" as="geometry" />
        </mxCell>
        <mxCell id="4UxN9WbuX106H-aje4Cc-12" value="&lt;b style=&quot;border-color: var(--border-color); font-size: 24px;&quot;&gt;&lt;b style=&quot;border-color: var(--border-color);&quot;&gt;&amp;nbsp;n-Dim Parallel&amp;nbsp;&lt;/b&gt;Model&amp;nbsp;&lt;/b&gt;" style="ellipse;whiteSpace=wrap;html=1;fillColor=#004C99;fontColor=#ffffff;strokeColor=none;" parent="1" vertex="1">
          <mxGeometry x="170" y="406" width="500" height="60" as="geometry" />
        </mxCell>
        <mxCell id="4UxN9WbuX106H-aje4Cc-13" value="&lt;b&gt;Distributed&amp;nbsp;Training, Fine-tuning, and Inference&lt;/b&gt;" style="rounded=1;whiteSpace=wrap;html=1;fontSize=24;fillColor=#3399FF;strokeColor=none;verticalAlign=middle;fontColor=#FFFFFF;" parent="1" vertex="1">
          <mxGeometry x="70" y="482" width="700" height="60" as="geometry" />
        </mxCell>
        <mxCell id="4UxN9WbuX106H-aje4Cc-17" value="&lt;font style=&quot;font-size: 24px;&quot;&gt;&lt;b style=&quot;font-size: 24px;&quot;&gt;GPU&lt;/b&gt;&lt;/font&gt;" style="rounded=0;whiteSpace=wrap;html=1;fillColor=#76608a;strokeColor=none;fontColor=#ffffff;fontFamily=Helvetica;fontSize=24;" parent="1" vertex="1">
          <mxGeometry x="70" y="737" width="200" height="50" as="geometry" />
        </mxCell>
        <mxCell id="4UxN9WbuX106H-aje4Cc-21" value="&lt;span style=&quot;font-size: 24px;&quot;&gt;&lt;b&gt;Bit-wise Correctness&lt;/b&gt;&lt;/span&gt;" style="ellipse;whiteSpace=wrap;html=1;fillColor=#004C99;fontColor=#ffffff;strokeColor=none;" parent="1" vertex="1">
          <mxGeometry x="170" y="557" width="500" height="60" as="geometry" />
        </mxCell>
        <mxCell id="4UxN9WbuX106H-aje4Cc-22" value="" style="group" parent="1" vertex="1" connectable="0">
          <mxGeometry x="207" y="19" width="420" height="100" as="geometry" />
        </mxCell>
        <mxCell id="uHRUemTuvMoK1wuL37Rp-19" value="&lt;b&gt;PyTorch Model&amp;nbsp;&lt;/b&gt;(Zero Change)" style="rounded=0;fillColor=#B5739D;strokeColor=none;labelBackgroundColor=none;container=0;fontSize=24;fontColor=#FFFFFF;html=1;" parent="4UxN9WbuX106H-aje4Cc-22" vertex="1">
          <mxGeometry width="420" height="60" as="geometry" />
        </mxCell>
        <mxCell id="4UxN9WbuX106H-aje4Cc-18" value="&lt;font size=&quot;1&quot; style=&quot;&quot;&gt;&lt;b style=&quot;font-size: 24px;&quot;&gt;Single Device&lt;/b&gt;&lt;/font&gt;" style="rounded=0;whiteSpace=wrap;html=1;fillColor=#76608a;strokeColor=none;fontColor=#ffffff;fontFamily=Helvetica;" parent="4UxN9WbuX106H-aje4Cc-22" vertex="1">
          <mxGeometry y="60" width="420" height="40" as="geometry" />
        </mxCell>
        <mxCell id="4UxN9WbuX106H-aje4Cc-23" value="&lt;font style=&quot;font-size: 24px;&quot;&gt;&lt;b style=&quot;font-size: 24px;&quot;&gt;CPU&lt;/b&gt;&lt;/font&gt;" style="rounded=0;whiteSpace=wrap;html=1;fillColor=#76608a;strokeColor=none;fontColor=#ffffff;fontFamily=Helvetica;fontSize=24;" parent="1" vertex="1">
          <mxGeometry x="320" y="737" width="200" height="50" as="geometry" />
        </mxCell>
        <mxCell id="4UxN9WbuX106H-aje4Cc-24" value="&lt;font style=&quot;font-size: 24px;&quot;&gt;&lt;b style=&quot;font-size: 24px;&quot;&gt;NPU&lt;/b&gt;&lt;/font&gt;" style="rounded=0;whiteSpace=wrap;html=1;fillColor=#76608a;strokeColor=none;fontColor=#ffffff;fontFamily=Helvetica;fontSize=24;" parent="1" vertex="1">
          <mxGeometry x="570" y="737" width="200" height="50" as="geometry" />
        </mxCell>
        <mxCell id="4UxN9WbuX106H-aje4Cc-26" value="" style="rounded=0;orthogonalLoop=1;jettySize=auto;html=1;fillColor=#f5f5f5;strokeColor=#999999;endArrow=classicThin;endFill=1;strokeWidth=3;endSize=6;exitX=0.5;exitY=1;exitDx=0;exitDy=0;entryX=0.5;entryY=0;entryDx=0;entryDy=0;" parent="1" source="4UxN9WbuX106H-aje4Cc-8" target="4UxN9WbuX106H-aje4Cc-11" edge="1">
          <mxGeometry relative="1" as="geometry">
            <mxPoint x="-120" y="700" as="sourcePoint" />
            <mxPoint x="550" y="851" as="targetPoint" />
          </mxGeometry>
        </mxCell>
        <mxCell id="4UxN9WbuX106H-aje4Cc-27" value="" style="rounded=0;orthogonalLoop=1;jettySize=auto;html=1;fillColor=#f5f5f5;strokeColor=#999999;endArrow=classicThin;endFill=1;strokeWidth=3;endSize=6;exitX=0.5;exitY=1;exitDx=0;exitDy=0;entryX=0.5;entryY=0;entryDx=0;entryDy=0;" parent="1" source="uHRUemTuvMoK1wuL37Rp-4" target="4UxN9WbuX106H-aje4Cc-11" edge="1">
          <mxGeometry relative="1" as="geometry">
            <mxPoint x="250" y="250" as="sourcePoint" />
            <mxPoint x="430" y="266" as="targetPoint" />
          </mxGeometry>
        </mxCell>
        <mxCell id="uHRUemTuvMoK1wuL37Rp-4" value="&lt;b style=&quot;border-color: var(--border-color);&quot;&gt;Auto&amp;nbsp;&lt;b style=&quot;border-color: var(--border-color);&quot;&gt;Plan &lt;br&gt;&lt;/b&gt;&lt;/b&gt;&lt;b&gt;Generation&lt;/b&gt;" style="rounded=1;whiteSpace=wrap;html=1;fontSize=24;fillColor=#3399FF;strokeColor=none;verticalAlign=middle;fontColor=#FFFFFF;align=center;" parent="1" vertex="1">
          <mxGeometry x="540" y="160" width="230" height="79.5" as="geometry" />
        </mxCell>
        <mxCell id="4UxN9WbuX106H-aje4Cc-8" value="&lt;b&gt;Plan Zoo &lt;br&gt;Import&lt;br&gt;&lt;/b&gt;" style="rounded=1;whiteSpace=wrap;html=1;fontSize=24;fillColor=#3399FF;strokeColor=none;verticalAlign=middle;fontColor=#FFFFFF;" parent="1" vertex="1">
          <mxGeometry x="327.5" y="160" width="185" height="79.5" as="geometry" />
        </mxCell>
        <mxCell id="4UxN9WbuX106H-aje4Cc-28" value="" style="rounded=0;orthogonalLoop=1;jettySize=auto;html=1;fillColor=#f5f5f5;strokeColor=#999999;endArrow=classicThin;endFill=1;strokeWidth=3;endSize=6;exitX=0.5;exitY=1;exitDx=0;exitDy=0;entryX=0.5;entryY=0;entryDx=0;entryDy=0;" parent="1" source="4UxN9WbuX106H-aje4Cc-11" target="uHRUemTuvMoK1wuL37Rp-5" edge="1">
          <mxGeometry relative="1" as="geometry">
            <mxPoint x="250" y="250" as="sourcePoint" />
            <mxPoint x="430" y="266" as="targetPoint" />
          </mxGeometry>
        </mxCell>
        <mxCell id="4UxN9WbuX106H-aje4Cc-29" value="" style="rounded=0;orthogonalLoop=1;jettySize=auto;html=1;fillColor=#f5f5f5;strokeColor=#999999;endArrow=classicThin;endFill=1;strokeWidth=3;endSize=6;exitX=0.5;exitY=1;exitDx=0;exitDy=0;entryX=0.5;entryY=0;entryDx=0;entryDy=0;" parent="1" source="uHRUemTuvMoK1wuL37Rp-5" target="4UxN9WbuX106H-aje4Cc-12" edge="1">
          <mxGeometry relative="1" as="geometry">
            <mxPoint x="430" y="326" as="sourcePoint" />
            <mxPoint x="430" y="340" as="targetPoint" />
          </mxGeometry>
        </mxCell>
        <mxCell id="4UxN9WbuX106H-aje4Cc-30" value="" style="rounded=0;orthogonalLoop=1;jettySize=auto;html=1;fillColor=#f5f5f5;strokeColor=#999999;endArrow=classicThin;endFill=1;strokeWidth=3;endSize=6;exitX=0.5;exitY=1;exitDx=0;exitDy=0;entryX=0.5;entryY=0;entryDx=0;entryDy=0;" parent="1" source="4UxN9WbuX106H-aje4Cc-12" target="4UxN9WbuX106H-aje4Cc-13" edge="1">
          <mxGeometry relative="1" as="geometry">
            <mxPoint x="430" y="400" as="sourcePoint" />
            <mxPoint x="430" y="416" as="targetPoint" />
          </mxGeometry>
        </mxCell>
        <mxCell id="4UxN9WbuX106H-aje4Cc-31" value="" style="rounded=0;orthogonalLoop=1;jettySize=auto;html=1;fillColor=#f5f5f5;strokeColor=#999999;endArrow=classicThin;endFill=1;strokeWidth=3;endSize=6;exitX=0.5;exitY=1;exitDx=0;exitDy=0;" parent="1" source="4UxN9WbuX106H-aje4Cc-13" target="4UxN9WbuX106H-aje4Cc-21" edge="1">
          <mxGeometry relative="1" as="geometry">
            <mxPoint x="430" y="475" as="sourcePoint" />
            <mxPoint x="430" y="490" as="targetPoint" />
          </mxGeometry>
        </mxCell>
        <mxCell id="4UxN9WbuX106H-aje4Cc-32" value="" style="rounded=0;orthogonalLoop=1;jettySize=auto;html=1;fillColor=#f5f5f5;strokeColor=#999999;endArrow=classicThin;endFill=1;strokeWidth=3;endSize=6;exitX=0.5;exitY=1;exitDx=0;exitDy=0;entryX=0.5;entryY=0;entryDx=0;entryDy=0;" parent="1" source="4UxN9WbuX106H-aje4Cc-21" target="uHRUemTuvMoK1wuL37Rp-6" edge="1">
          <mxGeometry relative="1" as="geometry">
            <mxPoint x="430" y="550" as="sourcePoint" />
            <mxPoint x="430" y="567" as="targetPoint" />
          </mxGeometry>
        </mxCell>
        <mxCell id="4UxN9WbuX106H-aje4Cc-35" value="" style="group" parent="1" vertex="1" connectable="0">
          <mxGeometry x="-174" y="305" width="160" height="143.5" as="geometry" />
        </mxCell>
        <mxCell id="4UxN9WbuX106H-aje4Cc-7" value="" style="group" parent="4UxN9WbuX106H-aje4Cc-35" vertex="1" connectable="0">
          <mxGeometry width="160" height="143.5" as="geometry" />
        </mxCell>
        <mxCell id="4UxN9WbuX106H-aje4Cc-5" value="" style="shape=actor;whiteSpace=wrap;html=1;fillColor=#B5739D;strokeColor=none;gradientColor=none;container=0;" parent="4UxN9WbuX106H-aje4Cc-7" vertex="1">
          <mxGeometry x="46.25" width="67.5" height="79" as="geometry" />
        </mxCell>
        <mxCell id="4UxN9WbuX106H-aje4Cc-36" value="" style="group" parent="1" vertex="1" connectable="0">
          <mxGeometry x="-187" y="19" width="180" height="129" as="geometry" />
        </mxCell>
        <mxCell id="4UxN9WbuX106H-aje4Cc-2" value="&lt;b style=&quot;border-color: var(--border-color); font-family: Helvetica; font-size: 24px; font-style: normal; font-variant-ligatures: normal; font-variant-caps: normal; letter-spacing: normal; orphans: 2; text-indent: 0px; text-transform: none; widows: 2; word-spacing: 0px; -webkit-text-stroke-width: 0px; text-decoration-thickness: initial; text-decoration-style: initial; text-decoration-color: initial;&quot;&gt;AI &lt;br&gt;Researcher&lt;/b&gt;" style="text;whiteSpace=wrap;html=1;fontColor=#B5739D;verticalAlign=middle;align=center;labelBackgroundColor=none;fontSize=24;" parent="4UxN9WbuX106H-aje4Cc-36" vertex="1">
          <mxGeometry x="2" y="88" width="180" height="50" as="geometry" />
        </mxCell>
        <mxCell id="uHRUemTuvMoK1wuL37Rp-1" value="" style="shape=actor;whiteSpace=wrap;html=1;fillColor=#B5739D;strokeColor=none;gradientColor=none;container=0;" parent="4UxN9WbuX106H-aje4Cc-36" vertex="1">
          <mxGeometry x="60" width="67.5" height="79" as="geometry" />
        </mxCell>
        <mxCell id="4UxN9WbuX106H-aje4Cc-37" value="" style="edgeStyle=orthogonalEdgeStyle;rounded=0;orthogonalLoop=1;jettySize=auto;html=1;fillColor=#f5f5f5;strokeColor=#60A917;endArrow=block;endFill=1;strokeWidth=7;endSize=6;" parent="1" edge="1">
          <mxGeometry relative="1" as="geometry">
            <mxPoint x="-40" y="69" as="sourcePoint" />
            <mxPoint x="200" y="69" as="targetPoint" />
          </mxGeometry>
        </mxCell>
        <mxCell id="4UxN9WbuX106H-aje4Cc-38" value="&lt;p style=&quot;line-height: 140%; font-size: 30px;&quot;&gt;&lt;font style=&quot;font-size: 30px;&quot;&gt;&lt;b style=&quot;font-size: 30px;&quot;&gt;Easily&lt;br style=&quot;font-size: 30px;&quot;&gt;Develop&lt;/b&gt;&lt;/font&gt;&lt;/p&gt;" style="edgeLabel;html=1;align=center;verticalAlign=middle;resizable=0;points=[];labelBackgroundColor=none;fontColor=#4D9900;labelBorderColor=none;fontStyle=2;fontSize=30;" parent="4UxN9WbuX106H-aje4Cc-37" vertex="1" connectable="0">
          <mxGeometry x="-0.2596" y="-2" relative="1" as="geometry">
            <mxPoint x="18" y="-2" as="offset" />
          </mxGeometry>
        </mxCell>
        <mxCell id="4UxN9WbuX106H-aje4Cc-40" value="" style="edgeStyle=orthogonalEdgeStyle;rounded=0;orthogonalLoop=1;jettySize=auto;html=1;fillColor=#f5f5f5;strokeColor=#60A917;endArrow=block;endFill=1;strokeWidth=7;endSize=6;entryX=0;entryY=0.5;entryDx=0;entryDy=0;" parent="1" target="NHiE_eCriIkFLmT3U7A5-1" edge="1">
          <mxGeometry relative="1" as="geometry">
            <mxPoint x="-40" y="360" as="sourcePoint" />
            <mxPoint x="-80" y="220" as="targetPoint" />
            <Array as="points">
              <mxPoint y="360" />
              <mxPoint y="200" />
            </Array>
          </mxGeometry>
        </mxCell>
        <mxCell id="4UxN9WbuX106H-aje4Cc-41" value="&lt;p style=&quot;line-height: 10%; font-size: 30px;&quot;&gt;&lt;b style=&quot;&quot;&gt;&lt;font style=&quot;font-size: 30px;&quot;&gt;Flexibly&lt;/font&gt;&lt;/b&gt;&lt;/p&gt;&lt;p style=&quot;line-height: 10%; font-size: 30px;&quot;&gt;&lt;b style=&quot;&quot;&gt;&lt;font style=&quot;font-size: 30px;&quot;&gt;Customize&lt;/font&gt;&lt;/b&gt;&lt;/p&gt;" style="edgeLabel;html=1;align=center;verticalAlign=middle;resizable=0;points=[];labelBackgroundColor=none;fontColor=#4D9900;labelBorderColor=none;fontStyle=2" parent="4UxN9WbuX106H-aje4Cc-40" vertex="1" connectable="0">
          <mxGeometry x="-0.2596" y="-2" relative="1" as="geometry">
            <mxPoint x="-95" y="209" as="offset" />
          </mxGeometry>
        </mxCell>
        <mxCell id="4UxN9WbuX106H-aje4Cc-42" value="" style="edgeStyle=orthogonalEdgeStyle;rounded=0;orthogonalLoop=1;jettySize=auto;html=1;fillColor=#f5f5f5;strokeColor=#60A917;endArrow=block;endFill=1;strokeWidth=7;endSize=6;entryX=0;entryY=0.5;entryDx=0;entryDy=0;" parent="1" target="uHRUemTuvMoK1wuL37Rp-5" edge="1">
          <mxGeometry relative="1" as="geometry">
            <mxPoint x="-40" y="360" as="sourcePoint" />
            <mxPoint x="80" y="220" as="targetPoint" />
            <Array as="points">
              <mxPoint x="-30" y="360" />
              <mxPoint x="-30" y="360" />
            </Array>
          </mxGeometry>
        </mxCell>
        <mxCell id="4UxN9WbuX106H-aje4Cc-43" value="&lt;p style=&quot;line-height: 240%;&quot;&gt;&lt;br&gt;&lt;/p&gt;" style="edgeLabel;html=1;align=center;verticalAlign=middle;resizable=0;points=[];labelBackgroundColor=none;fontColor=#4D9900;labelBorderColor=none;fontStyle=2" parent="4UxN9WbuX106H-aje4Cc-42" vertex="1" connectable="0">
          <mxGeometry x="-0.2596" y="-2" relative="1" as="geometry">
            <mxPoint x="-193" y="-32" as="offset" />
          </mxGeometry>
        </mxCell>
        <mxCell id="4UxN9WbuX106H-aje4Cc-44" value="" style="edgeStyle=orthogonalEdgeStyle;rounded=0;orthogonalLoop=1;jettySize=auto;html=1;fillColor=#f5f5f5;strokeColor=#60A917;endArrow=block;endFill=1;strokeWidth=7;endSize=6;entryX=0;entryY=0.5;entryDx=0;entryDy=0;" parent="1" target="4UxN9WbuX106H-aje4Cc-13" edge="1">
          <mxGeometry relative="1" as="geometry">
            <mxPoint x="-40" y="360" as="sourcePoint" />
            <mxPoint x="80" y="370" as="targetPoint" />
            <Array as="points">
              <mxPoint y="360" />
              <mxPoint y="512" />
            </Array>
          </mxGeometry>
        </mxCell>
        <mxCell id="4UxN9WbuX106H-aje4Cc-45" value="&lt;p style=&quot;line-height: 240%;&quot;&gt;&lt;br&gt;&lt;/p&gt;" style="edgeLabel;html=1;align=center;verticalAlign=middle;resizable=0;points=[];labelBackgroundColor=none;fontColor=#4D9900;labelBorderColor=none;fontStyle=2" parent="4UxN9WbuX106H-aje4Cc-44" vertex="1" connectable="0">
          <mxGeometry x="-0.2596" y="-2" relative="1" as="geometry">
            <mxPoint x="-193" y="-32" as="offset" />
          </mxGeometry>
        </mxCell>
        <mxCell id="4UxN9WbuX106H-aje4Cc-46" value="" style="edgeStyle=orthogonalEdgeStyle;rounded=0;orthogonalLoop=1;jettySize=auto;html=1;fillColor=#f5f5f5;strokeColor=#60A917;endArrow=block;endFill=1;strokeWidth=7;endSize=6;entryX=0;entryY=0.5;entryDx=0;entryDy=0;" parent="1" target="uHRUemTuvMoK1wuL37Rp-6" edge="1">
          <mxGeometry relative="1" as="geometry">
            <mxPoint x="-40" y="360" as="sourcePoint" />
            <mxPoint x="80" y="522" as="targetPoint" />
            <Array as="points">
              <mxPoint y="360" />
              <mxPoint y="663" />
            </Array>
          </mxGeometry>
        </mxCell>
        <mxCell id="4UxN9WbuX106H-aje4Cc-47" value="&lt;p style=&quot;line-height: 240%;&quot;&gt;&lt;br&gt;&lt;/p&gt;" style="edgeLabel;html=1;align=center;verticalAlign=middle;resizable=0;points=[];labelBackgroundColor=none;fontColor=#4D9900;labelBorderColor=none;fontStyle=2" parent="4UxN9WbuX106H-aje4Cc-46" vertex="1" connectable="0">
          <mxGeometry x="-0.2596" y="-2" relative="1" as="geometry">
            <mxPoint x="-193" y="-32" as="offset" />
          </mxGeometry>
        </mxCell>
        <mxCell id="4UxN9WbuX106H-aje4Cc-6" value="&lt;b style=&quot;border-color: var(--border-color); font-family: Helvetica; font-size: 24px; font-style: normal; font-variant-ligatures: normal; font-variant-caps: normal; letter-spacing: normal; orphans: 2; text-indent: 0px; text-transform: none; widows: 2; word-spacing: 0px; -webkit-text-stroke-width: 0px; text-decoration-thickness: initial; text-decoration-style: initial; text-decoration-color: initial;&quot;&gt;System Researcher&lt;/b&gt;" style="text;whiteSpace=wrap;html=1;fontColor=#B5739D;verticalAlign=middle;align=center;labelBackgroundColor=none;fontSize=24;" parent="1" vertex="1">
          <mxGeometry x="-174" y="394.5" width="160" height="50" as="geometry" />
        </mxCell>
        <mxCell id="4UxN9WbuX106H-aje4Cc-52" value="&lt;b style=&quot;&quot;&gt;&lt;font style=&quot;font-size: 24px;&quot;&gt;And&lt;/font&gt;&lt;/b&gt;" style="text;html=1;align=center;verticalAlign=middle;whiteSpace=wrap;rounded=0;fontSize=40;fontColor=#4D4D4D;" parent="1" vertex="1">
          <mxGeometry x="805" y="358" width="180" height="60" as="geometry" />
        </mxCell>
        <mxCell id="NHiE_eCriIkFLmT3U7A5-1" value="&lt;b&gt;Manual Plan Customization&lt;br&gt;&lt;/b&gt;" style="rounded=1;whiteSpace=wrap;html=1;fontSize=24;fillColor=#3399FF;strokeColor=none;verticalAlign=middle;fontColor=#FFFFFF;" vertex="1" parent="1">
          <mxGeometry x="70" y="160" width="230" height="79.5" as="geometry" />
        </mxCell>
        <mxCell id="NHiE_eCriIkFLmT3U7A5-2" value="" style="rounded=0;orthogonalLoop=1;jettySize=auto;html=1;fillColor=#f5f5f5;strokeColor=#999999;endArrow=classicThin;endFill=1;strokeWidth=3;endSize=6;exitX=0.5;exitY=1;exitDx=0;exitDy=0;entryX=0.5;entryY=0;entryDx=0;entryDy=0;" edge="1" parent="1" source="NHiE_eCriIkFLmT3U7A5-1" target="4UxN9WbuX106H-aje4Cc-11">
          <mxGeometry relative="1" as="geometry">
            <mxPoint x="665" y="250" as="sourcePoint" />
            <mxPoint x="430" y="264" as="targetPoint" />
          </mxGeometry>
        </mxCell>
      </root>
    </mxGraphModel>
  </diagram>
</mxfile>
